# xmcd
#
# Track frame offsets: 
#        150
#        25440
#        47757
#        71597
#        94957
#        116720
#        134542
#        159407
#        180657
#
# Disc length: 2727 seconds
#
# Revision: 2
# Processed by: cddbd v1.5.2PL0 Copyright (c) Steve Scherf et al.
# Submitted via: ExactAudioCopy v1.0b3
#
DISCID=7e0aa509
DTITLE=崔健 - 一無所有 [TOCT-8244]
DYEAR=1993
DGENRE=Rock
TTITLE0=一無所有
TTITLE1=偽行僧
TTITLE2=従頭再来
TTITLE3=不是我不明白
TTITLE4=花房姑娘
TTITLE5=譲我睡個好覚-為修復蘆溝橋
TTITLE6=出走
TTITLE7=新長征路上的搖滾
TTITLE8=不再俺飾
EXTD=YEAR: 1993
EXTT0=
EXTT1=
EXTT2=
EXTT3=
EXTT4=
EXTT5=
EXTT6=
EXTT7=
EXTT8=
PLAYORDER=
